<svg {% if class %} class="{{ class }}"{% endif %}{% if width %} width="{{ width }}"{% endif %}{% if height %} height="{{ height }}"{% endif %} viewBox="0 0 612 612" version="1.1" xmlns="http://www.w3.org/2000/svg" xmlns:xlink="http://www.w3.org/1999/xlink">
    <!-- Generator: Sketch 47.1 (45422) - http://www.bohemiancoding.com/sketch -->
    <title>icon</title>
    <desc>Created with Sketch.</desc>
    <defs></defs>
    <g id="bs-stencil" stroke="none" stroke-width="1" fill="none" fill-rule="evenodd">
        <g id="icon" fill-rule="nonzero" fill="currentColor">
            <path d="M510,8 C561.846401,8.16468012 603.83532,50.1535995 604,102 L604,510 C603.83532,561.846401 561.846401,603.83532 510,604 L102,604 C50.1535995,603.83532 8.16468012,561.846401 8,510 L8,102 C8.16468012,50.1535995 50.1535995,8.16468012 102,8 L510,8 L510,8 Z M510,0 L102,0 C45.9,6.21724894e-15 0,45.9 0,102 L0,510 C0,566.1 45.9,612 102,612 L510,612 C566.1,612 612,566.1 612,510 L612,102 C612,45.9 566.1,6.21724894e-15 510,0 Z" id="Outline"></path>
            <path d="M48,454 L48,154 L165.603919,154 C217.012414,154 251.805744,183.936607 251.805744,228.841518 C251.805744,260.064907 228.91016,289.131044 199.980449,294.32548 L199.980449,295.990728 C240.779489,301.185164 267,329.882297 267,369.791466 C267,422.59684 229.109088,454 165.215537,454 L48,454 Z M85.4646395,283.312139 L145.408063,283.312139 C189.74043,283.312139 213.886414,265.637809 213.886414,233.165484 C213.886414,203.437033 193.49163,187.011638 157.050045,187.011638 L85.4646395,187.011638 L85.4646395,283.312139 Z M159.560318,420.941054 C204.726286,420.941054 228.45547,402.642256 228.45547,367.955909 C228.45547,333.269562 203.892686,315.566846 156.026991,315.566846 L85.4646395,315.566846 L85.4646395,420.969439 L159.560318,420.941054 Z" id="Bootstrap-Icon"></path>
            <path d="M564,398.83871 C564,429.080645 519.720536,454 489.475,454 L367.525,454 C337.0375,454 293,429.322581 293,398.83871 L293,395.935484 L564,395.935484 L564,398.83871 Z M564,333.032258 L367.525,333.032258 C337.279464,333.032258 293,308.112903 293,277.870968 L293,274.967742 L489.475,274.967742 C519.720536,274.967742 564,299.887097 564,330.129032 L564,333.032258 L564,333.032258 Z M564,212.064516 L293,212.064516 L293,209.16129 C293,178.919355 337.0375,154 367.525,154 L489.475,154 C519.9625,154 564,178.677419 564,209.16129 L564,212.064516 L564,212.064516 Z" id="Stencil-Icon"></path>
        </g>
    </g>
</svg>
