<?xml version="1.0" standalone="no"?>
<!DOCTYPE svg PUBLIC "-//W3C//DTD SVG 20010904//EN"
 "http://www.w3.org/TR/2001/REC-SVG-20010904/DTD/svg10.dtd">
<svg version="1.0" xmlns="http://www.w3.org/2000/svg"
 width="700.000000pt" height="700.000000pt" viewBox="0 0 700.000000 700.000000"
 preserveAspectRatio="xMidYMid meet">
<metadata>
Created by potrace 1.11, written by Peter Selinger 2001-2013
</metadata>
<g transform="translate(0.000000,700.000000) scale(0.100000,-0.100000)"
fill="#000000" stroke="none">
<path d="M975 6989 c-248 -28 -492 -152 -670 -340 -169 -178 -267 -392 -294
-637 -16 -145 -16 -4879 0 -5024 27 -245 125 -459 294 -637 187 -198 423 -313
695 -341 84 -8 781 -10 2580 -8 2339 3 2469 5 2540 22 474 114 806 472 869
939 15 110 15 4964 0 5074 -63 467 -395 825 -869 939 -71 18 -199 19 -2570 20
-1396 1 -2530 -2 -2575 -7z m1212 -1765 c234 -34 407 -117 554 -263 91 -91
150 -188 192 -313 29 -87 31 -102 31 -248 1 -136 -2 -164 -22 -230 -81 -255
-284 -467 -500 -523 -54 -14 -69 -30 -32 -35 67 -9 193 -48 267 -82 172 -80
298 -202 378 -365 76 -153 103 -308 85 -495 -42 -446 -306 -719 -802 -833 -90
-20 -121 -21 -895 -24 l-803 -4 0 1716 0 1715 721 0 c602 0 739 -3 826 -16z
m3704 1 c277 -48 550 -220 662 -415 32 -58 57 -142 57 -197 l0 -43 -1545 0
-1545 0 0 30 c0 226 231 468 559 584 148 53 167 54 977 55 619 1 766 -2 835
-14z m57 -1393 c199 -53 366 -145 494 -272 106 -105 157 -199 166 -305 l5 -65
-1154 0 c-1088 0 -1159 1 -1244 19 -383 79 -695 359 -695 622 l0 30 1173 -4
c1172 -3 1172 -3 1255 -25z m659 -1428 c-19 -244 -339 -511 -695 -580 -109
-21 -1599 -21 -1699 0 -304 64 -584 265 -664 476 -10 26 -21 74 -25 108 l-7
62 1548 0 1548 0 -6 -66z"/>
<path d="M1070 4311 l0 -551 353 0 c524 0 640 14 812 95 181 85 273 212 295
405 13 118 -3 220 -50 317 -65 131 -165 206 -345 255 -76 20 -105 22 -572 26
l-493 4 0 -551z"/>
<path d="M1070 2791 l0 -601 493 0 c511 0 591 5 727 46 263 78 409 275 410
550 1 322 -172 508 -538 581 -61 12 -183 16 -584 20 l-508 5 0 -601z"/>
</g>
</svg>
