<?xml version="1.0" encoding="UTF-8"?>
<svg width="612px" height="612px" viewBox="0 0 612 612" version="1.1" xmlns="http://www.w3.org/2000/svg" xmlns:xlink="http://www.w3.org/1999/xlink">
    <!-- Generator: Sketch 47.1 (45422) - http://www.bohemiancoding.com/sketch -->
    <title>favicon</title>
    <desc>Created with Sketch.</desc>
    <defs>
        <linearGradient x1="100%" y1="50%" x2="37.4304409%" y2="50%" id="linearGradient-1">
            <stop stop-color="#000000" offset="0%"></stop>
            <stop stop-color="#563D7C" offset="100%"></stop>
        </linearGradient>
    </defs>
    <g id="bs-stencil" stroke="none" stroke-width="1" fill="none" fill-rule="evenodd">
        <g id="favicon" fill-rule="nonzero">
            <path d="M515.47651,7.29617709e-15 C568.71476,0.169101067 611.830899,43.2852397 612,96.5234899 L612,515.47651 C611.830899,568.71476 568.71476,611.830899 515.47651,612 L96.5234899,612 C43.2852397,611.830899 0.169101067,568.71476 0,515.47651 L0,96.5234899 C0.169101067,43.2852397 43.2852397,0.169101067 96.5234899,0 L515.47651,0 L515.47651,7.29617709e-15 Z" id="Outline" fill="url(#linearGradient-1)"></path>
            <path d="M56,454 L56,154 L173.603919,154 C225.012414,154 259.805744,183.936607 259.805744,228.841518 C259.805744,260.064907 236.91016,289.131044 207.980449,294.32548 L207.980449,295.990728 C248.779489,301.185164 275,329.882297 275,369.791466 C275,422.59684 237.109088,454 173.215537,454 L56,454 Z M93.4646395,283.312139 L153.408063,283.312139 C197.74043,283.312139 221.886414,265.637809 221.886414,233.165484 C221.886414,203.437033 201.49163,187.011638 165.050045,187.011638 L93.4646395,187.011638 L93.4646395,283.312139 Z M167.560318,420.941054 C212.726286,420.941054 236.45547,402.642256 236.45547,367.955909 C236.45547,333.269562 211.892686,315.566846 164.026991,315.566846 L93.4646395,315.566846 L93.4646395,420.969439 L167.560318,420.941054 Z" id="Bootstrap-Icon" fill="#FFFFFF"></path>
            <path d="M578,398.83871 C578,429.080645 533.883929,454 503.75,454 L382.25,454 C351.875,454 308,429.322581 308,398.83871 L308,395.935484 L578,395.935484 L578,398.83871 Z M578,333.032258 L382.25,333.032258 C352.116071,333.032258 308,308.112903 308,277.870968 L308,274.967742 L503.75,274.967742 C533.883929,274.967742 578,299.887097 578,330.129032 L578,333.032258 L578,333.032258 Z M578,212.064516 L308,212.064516 L308,209.16129 C308,178.919355 351.875,154 382.25,154 L503.75,154 C534.125,154 578,178.677419 578,209.16129 L578,212.064516 L578,212.064516 Z" id="Stencil-Icon" fill="#FFFFFF"></path>
        </g>
    </g>
</svg>