<?xml version="1.0" encoding="UTF-8"?>
<svg width="612px" height="612px" viewBox="0 0 612 612" version="1.1" xmlns="http://www.w3.org/2000/svg" xmlns:xlink="http://www.w3.org/1999/xlink">
    <!-- Generator: Sketch 47.1 (45422) - http://www.bohemiancoding.com/sketch -->
    <title>icon</title>
    <desc>Created with Sketch.</desc>
    <defs></defs>
    <g id="bs-stencil" stroke="none" stroke-width="1" fill="none" fill-rule="evenodd">
        <g id="icon" fill-rule="nonzero" fill="#000000">
            <path d="M510,8 C561.846401,8.16468012 603.83532,50.1535995 604,102 L604,510 C603.83532,561.846401 561.846401,603.83532 510,604 L102,604 C50.1535995,603.83532 8.16468012,561.846401 8,510 L8,102 C8.16468012,50.1535995 50.1535995,8.16468012 102,8 L510,8 L510,8 Z M510,0 L102,0 C45.9,6.21724894e-15 0,45.9 0,102 L0,510 C0,566.1 45.9,612 102,612 L510,612 C566.1,612 612,566.1 612,510 L612,102 C612,45.9 566.1,6.21724894e-15 510,0 Z" id="Outline"></path>
            <path d="M56,429 L56,154 L163.400839,154 C210.349237,154 242.123967,181.44189 242.123967,222.604725 C242.123967,251.226165 221.214758,277.870123 194.794931,282.63169 L194.794931,284.158167 C232.054328,288.919734 256,315.225439 256,351.808843 C256,400.21377 221.396427,429 163.046153,429 L56,429 Z M90.2142826,272.536128 L144.957135,272.536128 C185.443315,272.536128 207.494442,256.334658 207.494442,226.56836 C207.494442,199.31728 188.869069,184.260668 155.589083,184.260668 L90.2142826,184.260668 L90.2142826,272.536128 Z M157.881569,398.695966 C199.129028,398.695966 220.799516,381.922068 220.799516,350.12625 C220.799516,318.330432 198.367749,302.102943 154.654786,302.102943 L90.2142826,302.102943 L90.2142826,398.721986 L157.881569,398.695966 Z" id="Bootstrap-Icon"></path>
            <path d="M556,378.435484 C556,406.157258 515.478571,429 487.8,429 L376.2,429 C348.3,429 308,406.379032 308,378.435484 L308,375.774194 L556,375.774194 L556,378.435484 Z M556,318.112903 L376.2,318.112903 C348.521429,318.112903 308,295.270161 308,267.548387 L308,264.887097 L487.8,264.887097 C515.478571,264.887097 556,287.729839 556,315.451613 L556,318.112903 L556,318.112903 Z M556,207.225806 L308,207.225806 L308,204.564516 C308,176.842742 348.3,154 376.2,154 L487.8,154 C515.7,154 556,176.620968 556,204.564516 L556,207.225806 L556,207.225806 Z" id="Stencil-Icon"></path>
        </g>
    </g>
</svg>